<svg width="29" height="29" viewBox="0 0 29 29" fill="none" xmlns="http://www.w3.org/2000/svg">
<path d="M21.3145 16.5C22.1101 16.5 22.8732 16.8161 23.4358 17.3787C23.9984 17.9413 24.3145 18.7044 24.3145 19.5V20.215C24.3145 23.792 20.1045 26.5 14.3145 26.5C8.52445 26.5 4.31445 23.933 4.31445 20.215V19.5C4.31445 18.7044 4.63052 17.9413 5.19313 17.3787C5.75574 16.8161 6.5188 16.5 7.31445 16.5H21.3145ZM21.3145 18H7.31445C6.94173 18 6.58235 18.1388 6.30635 18.3892C6.03034 18.6397 5.85748 18.984 5.82145 19.355L5.81445 19.5V20.215C5.81445 22.889 9.20345 25 14.3145 25C19.2405 25 22.6695 22.895 22.8105 20.376L22.8145 20.215V19.5C22.8145 19.1273 22.6757 18.7679 22.4252 18.4919C22.1747 18.2159 21.8304 18.043 21.4595 18.007L21.3145 18ZM14.3145 2.5C15.1024 2.5 15.8826 2.65519 16.6106 2.95672C17.3385 3.25825 17.9999 3.70021 18.5571 4.25736C19.1142 4.81451 19.5562 5.47595 19.8577 6.2039C20.1593 6.93185 20.3145 7.71207 20.3145 8.5C20.3145 9.28793 20.1593 10.0681 19.8577 10.7961C19.5562 11.5241 19.1142 12.1855 18.5571 12.7426C17.9999 13.2998 17.3385 13.7417 16.6106 14.0433C15.8826 14.3448 15.1024 14.5 14.3145 14.5C12.7232 14.5 11.197 13.8679 10.0718 12.7426C8.94659 11.6174 8.31445 10.0913 8.31445 8.5C8.31445 6.9087 8.94659 5.38258 10.0718 4.25736C11.197 3.13214 12.7232 2.5 14.3145 2.5ZM14.3145 4C13.121 4 11.9764 4.47411 11.1325 5.31802C10.2886 6.16193 9.81445 7.30653 9.81445 8.5C9.81445 9.69347 10.2886 10.8381 11.1325 11.682C11.9764 12.5259 13.121 13 14.3145 13C15.5079 13 16.6525 12.5259 17.4964 11.682C18.3403 10.8381 18.8145 9.69347 18.8145 8.5C18.8145 7.30653 18.3403 6.16193 17.4964 5.31802C16.6525 4.47411 15.5079 4 14.3145 4Z" fill="white"/>
</svg>
