<svg width="19" height="19" viewBox="0 0 19 19" fill="none" xmlns="http://www.w3.org/2000/svg">
<path d="M3.31445 16.25H4.06445V6.5H3.31445C2.91663 6.5 2.5351 6.65804 2.25379 6.93934C1.97249 7.22064 1.81445 7.60218 1.81445 8V14.75C1.81445 15.1478 1.97249 15.5294 2.25379 15.8107C2.5351 16.092 2.91663 16.25 3.31445 16.25ZM15.3145 6.5H10.0645L10.906 3.974C10.981 3.74856 11.0015 3.50851 10.9656 3.27362C10.9298 3.03872 10.8386 2.81571 10.6997 2.62295C10.5608 2.43018 10.378 2.27318 10.1665 2.16488C9.95502 2.05657 9.72082 2.00006 9.4832 2H9.31445L5.56445 6.0785V16.25H13.8145L16.7485 9.803L16.8145 9.5V8C16.8145 7.60218 16.6564 7.22064 16.3751 6.93934C16.0938 6.65804 15.7123 6.5 15.3145 6.5Z" fill="white"/>
</svg>
