<svg width="22" height="17" viewBox="0 0 22 17" fill="none" xmlns="http://www.w3.org/2000/svg">
<path d="M15 12.2585V2.74854C15 2.2181 14.7893 1.70939 14.4142 1.33432C14.0391 0.959249 13.5304 0.748535 13 0.748535H3C2.46957 0.748535 1.96086 0.959249 1.58579 1.33432C1.21071 1.70939 1 2.2181 1 2.74854V11.7485C1 12.0138 1.10536 12.2681 1.29289 12.4556C1.48043 12.6432 1.73478 12.7485 2 12.7485H2.71C2.90493 12.3035 3.22534 11.9248 3.63204 11.659C4.03874 11.3931 4.5141 11.2515 5 11.2515C5.4859 11.2515 5.96126 11.3931 6.36796 11.659C6.77466 11.9248 7.09507 12.3035 7.29 12.7485H14.71C14.7833 12.5719 14.88 12.4085 15 12.2585ZM15 12.2585C15.2599 11.906 15.6081 11.6283 16.0096 11.4534C16.4111 11.2784 16.8517 11.2125 17.2868 11.2622C17.7219 11.3119 18.1362 11.4755 18.4879 11.7364C18.8396 11.9974 19.1163 12.3465 19.29 12.7485H21V9.85853C21.0004 9.13288 20.8033 8.42079 20.43 7.79854L19.2 5.74854L18.29 4.23853C18.2015 4.08926 18.0757 3.96558 17.9249 3.87967C17.7741 3.79376 17.6035 3.74857 17.43 3.74854H15V12.2585Z" stroke="white" stroke-width="1.5" stroke-linecap="round" stroke-linejoin="round"/>
<path d="M10 7.74854H5M10 4.74854H5M7.5 13.7485C7.50044 14.1204 7.41789 14.4878 7.25839 14.8237C7.09888 15.1597 6.86642 15.4558 6.57796 15.6906C6.2895 15.9253 5.9523 16.0927 5.59094 16.1806C5.22957 16.2685 4.85315 16.2747 4.48909 16.1987C4.12504 16.1227 3.78253 15.9664 3.48652 15.7413C3.19051 15.5161 2.94846 15.2278 2.77802 14.8972C2.60757 14.5667 2.51302 14.2023 2.50125 13.8306C2.48948 13.4589 2.5608 13.0892 2.71 12.7485C2.9402 12.2229 3.34422 11.7925 3.85423 11.5295C4.36424 11.2665 4.94919 11.187 5.51091 11.3042C6.07262 11.4215 6.57689 11.7284 6.93908 12.1735C7.30127 12.6186 7.49932 13.1747 7.5 13.7485ZM19.5 13.7485C19.5004 14.1204 19.4179 14.4878 19.2584 14.8237C19.0989 15.1597 18.8664 15.4558 18.578 15.6906C18.2895 15.9253 17.9523 16.0927 17.5909 16.1806C17.2296 16.2685 16.8531 16.2747 16.4891 16.1987C16.125 16.1227 15.7825 15.9664 15.4865 15.7413C15.1905 15.5161 14.9485 15.2278 14.778 14.8972C14.6076 14.5667 14.513 14.2023 14.5013 13.8306C14.4895 13.4589 14.5608 13.0892 14.71 12.7485C14.7833 12.5719 14.88 12.4085 15 12.2585C15.2599 11.906 15.6081 11.6283 16.0096 11.4534C16.4111 11.2784 16.8517 11.2125 17.2868 11.2622C17.7219 11.3119 18.1362 11.4755 18.4879 11.7364C18.8396 11.9974 19.1163 12.3465 19.29 12.7485C19.43 13.0635 19.502 13.4045 19.5 13.7485Z" stroke="white" stroke-width="1.5" stroke-linecap="round" stroke-linejoin="round"/>
</svg>
