<svg width="20" height="15" viewBox="0 0 20 15" fill="none" xmlns="http://www.w3.org/2000/svg">
<path d="M0.904469 8.65938C0.648203 8.65938 0.433544 8.57567 0.260489 8.40825C0.0874348 8.24083 0.000606096 8.03288 3.11885e-06 7.78437C-0.000599858 7.53587 0.0862288 7.32821 0.260489 7.16138C0.43475 6.99454 0.649409 6.91054 0.904469 6.90937H4.0701C4.32636 6.90937 4.54132 6.99337 4.71498 7.16138C4.88864 7.32937 4.97517 7.53704 4.97456 7.78437C4.97396 8.03171 4.88713 8.23967 4.71408 8.40825C4.54102 8.57683 4.32636 8.66054 4.0701 8.65938H0.904469ZM5.65291 14.5C4.89919 14.5 4.25853 14.2448 3.73092 13.7344C3.20332 13.224 2.93952 12.6042 2.93952 11.875H1.80893C1.50745 11.875 1.26626 11.7656 1.08536 11.5469C0.904469 11.3281 0.851708 11.0802 0.92708 10.8031L1.13059 9.97188H3.95704C4.59017 9.97188 5.12531 9.76042 5.56247 9.3375C5.99963 8.91458 6.2182 8.39687 6.2182 7.78437C6.2182 7.59479 6.19559 7.41979 6.15037 7.25938C6.10515 7.09896 6.04485 6.93854 5.96948 6.77813H6.82872C7.46184 6.77813 7.99699 6.56667 8.43414 6.14375C8.8713 5.72083 9.08988 5.20312 9.08988 4.59063C9.08988 3.97813 8.8713 3.46042 8.43414 3.0375C7.99699 2.61458 7.46184 2.40313 6.82872 2.40313H3.39175L3.52742 1.87812C3.61787 1.46979 3.82529 1.13817 4.14969 0.88325C4.47409 0.628333 4.85457 0.500583 5.29113 0.5H14.4715C14.7729 0.5 15.0141 0.609375 15.195 0.828125C15.3759 1.04688 15.4287 1.29479 15.3533 1.57187L14.7654 4H16.5065C16.7929 4 17.0643 4.06213 17.3205 4.18638C17.5768 4.31063 17.7878 4.48183 17.9536 4.7L19.6495 6.86562C19.8153 7.06979 19.9209 7.29233 19.9661 7.53325C20.0113 7.77417 20.0113 8.01829 19.9661 8.26562L19.3556 11.175C19.3103 11.3792 19.2048 11.5469 19.039 11.6781C18.8732 11.8094 18.6848 11.875 18.4737 11.875H17.411C17.411 12.6042 17.1472 13.224 16.6196 13.7344C16.092 14.2448 15.4513 14.5 14.6976 14.5C13.9438 14.5 13.3032 14.2448 12.7756 13.7344C12.248 13.224 11.9842 12.6042 11.9842 11.875H8.36631C8.36631 12.6042 8.10251 13.224 7.5749 13.7344C7.0473 14.2448 6.40663 14.5 5.65291 14.5ZM2.7134 5.46563C2.45713 5.46563 2.24247 5.38163 2.06942 5.21362C1.89637 5.04563 1.80954 4.83796 1.80893 4.59063C1.80833 4.34329 1.89516 4.13562 2.06942 3.96762C2.24368 3.79962 2.45834 3.71563 2.7134 3.71563H6.78349C7.03976 3.71563 7.25472 3.79962 7.42838 3.96762C7.60204 4.13562 7.68856 4.34329 7.68796 4.59063C7.68736 4.83796 7.60053 5.04592 7.42747 5.2145C7.25442 5.38308 7.03976 5.46679 6.78349 5.46563H2.7134ZM5.65291 12.75C5.90918 12.75 6.12414 12.666 6.2978 12.498C6.47145 12.33 6.55798 12.1223 6.55738 11.875C6.55678 11.6277 6.46995 11.42 6.29689 11.252C6.12384 11.084 5.90918 11 5.65291 11C5.39665 11 5.18199 11.084 5.00893 11.252C4.83588 11.42 4.74905 11.6277 4.74845 11.875C4.74784 12.1223 4.83467 12.3303 5.00893 12.4989C5.18319 12.6675 5.39785 12.7512 5.65291 12.75ZM14.6976 12.75C14.9538 12.75 15.1688 12.666 15.3425 12.498C15.5161 12.33 15.6026 12.1223 15.602 11.875C15.6014 11.6277 15.5146 11.42 15.3415 11.252C15.1685 11.084 14.9538 11 14.6976 11C14.4413 11 14.2266 11.084 14.0536 11.252C13.8805 11.42 13.7937 11.6277 13.7931 11.875C13.7925 12.1223 13.8793 12.3303 14.0536 12.4989C14.2279 12.6675 14.4425 12.7512 14.6976 12.75ZM13.7253 8.375H18.0893L18.1798 7.91563L16.5065 5.75H14.3584L13.7253 8.375Z" fill="#FF6600"/>
</svg>
