<svg width="16" height="17" viewBox="0 0 16 17" fill="none" xmlns="http://www.w3.org/2000/svg">
<path fill-rule="evenodd" clip-rule="evenodd" d="M8.75 3.48109C8.75 1.87027 7.44414 0.564453 5.83332 0.564453L5.67328 0.56875C4.13687 0.651836 2.91664 1.92398 2.91664 3.48109C2.91664 5.09195 4.2225 6.39777 5.83332 6.39777L5.99336 6.39344C7.52977 6.31039 8.75 5.03824 8.75 3.48109ZM6.66664 13.0645C6.66664 13.9752 6.91012 14.829 7.33555 15.5645H0V12.5645C0 10.1413 1.86203 8.16547 4.19465 8.0682L4.37496 8.06445H7.29164C8.05078 8.06445 8.76476 8.26332 9.38703 8.61316C7.77184 9.44203 6.66664 11.1242 6.66664 13.0645ZM9.21754 16.4354L11.6666 14.9395L14.1157 16.4354L13.4499 13.6438L15.6294 11.7769L12.7687 11.5475L11.6666 8.89777L10.5645 11.5475L7.70391 11.7769L9.8834 13.6438L9.21754 16.4354Z" fill="#FF6600"/>
</svg>
