<svg width="27" height="27" viewBox="0 0 27 27" fill="none" xmlns="http://www.w3.org/2000/svg">
<path fill-rule="evenodd" clip-rule="evenodd" d="M21.7648 11.5284C21.429 8.08343 19.3923 2.66675 13.0982 2.66675C6.80397 2.66675 4.76729 8.08343 4.43147 11.5284C3.25335 11.9756 2.47624 13.1067 2.48147 14.3667V15.8834C2.48147 17.5587 3.83957 18.9167 5.51479 18.9167C7.19006 18.9167 8.54816 17.5587 8.54816 15.8834V14.3667C8.54267 13.1338 7.79416 12.026 6.65229 11.5609C6.86897 9.56756 7.93066 4.83343 13.0982 4.83343C18.2657 4.83343 19.3165 9.56756 19.5332 11.5609C18.3936 12.027 17.6489 13.1356 17.6482 14.3667V15.8834C17.6505 16.4542 17.8132 17.0128 18.1178 17.4955C18.4224 17.9782 18.8565 18.3656 19.3707 18.6134C18.9157 19.4692 17.7565 20.6284 14.9073 20.9751C14.3378 20.1103 13.2359 19.7693 12.2774 20.1614C11.319 20.5534 10.772 21.5689 10.9718 22.5849C11.1717 23.601 12.0626 24.3334 13.0982 24.3334C13.4994 24.3312 13.8921 24.2176 14.2326 24.0053C14.5731 23.7929 14.8479 23.4903 15.0265 23.1309C19.674 22.6001 21.1582 20.2059 21.624 18.7976C22.8842 18.3893 23.7318 17.2081 23.7148 15.8834V14.3667C23.72 13.1067 22.9429 11.9756 21.7648 11.5284ZM6.38147 15.8834C6.38147 16.362 5.99345 16.7501 5.51479 16.7501C5.03612 16.7501 4.64816 16.3621 4.64816 15.8834V14.3667C4.64728 14.2524 4.66905 14.139 4.71221 14.0331C4.75537 13.9271 4.81907 13.8308 4.89963 13.7496C4.9802 13.6684 5.07603 13.604 5.18162 13.56C5.2872 13.5161 5.40044 13.4934 5.51481 13.4934C5.62919 13.4934 5.74243 13.5161 5.84801 13.56C5.95359 13.604 6.04943 13.6684 6.12999 13.7496C6.21056 13.8308 6.27426 13.9271 6.31742 14.0331C6.36058 14.139 6.38235 14.2524 6.38147 14.3667V15.8834ZM19.8148 14.3667C19.8148 13.8881 20.2028 13.5001 20.6815 13.5001C21.1601 13.5001 21.5482 13.8881 21.5482 14.3667V15.8834C21.5482 16.362 21.1601 16.7501 20.6815 16.7501C20.2028 16.7501 19.8148 16.3621 19.8148 15.8834V14.3667Z" fill="white"/>
</svg>
