<svg width="20" height="15" viewBox="0 0 20 15" fill="none" xmlns="http://www.w3.org/2000/svg">
<path d="M13.75 10C13.5511 10 13.3603 10.079 13.2197 10.2197C13.079 10.3603 13 10.5511 13 10.75C13 10.9489 13.079 11.1397 13.2197 11.2803C13.3603 11.421 13.5511 11.5 13.75 11.5H16.25C16.4489 11.5 16.6397 11.421 16.7803 11.2803C16.921 11.1397 17 10.9489 17 10.75C17 10.5511 16.921 10.3603 16.7803 10.2197C16.6397 10.079 16.4489 10 16.25 10H13.75ZM0 3.75C0 2.88805 0.34241 2.0614 0.951903 1.4519C1.5614 0.84241 2.38805 0.5 3.25 0.5H16.75C17.1768 0.5 17.5994 0.584064 17.9937 0.747392C18.388 0.910719 18.7463 1.15011 19.0481 1.4519C19.3499 1.75369 19.5893 2.11197 19.7526 2.50628C19.9159 2.90059 20 3.3232 20 3.75V11.25C20 11.6768 19.9159 12.0994 19.7526 12.4937C19.5893 12.888 19.3499 13.2463 19.0481 13.5481C18.7463 13.8499 18.388 14.0893 17.9937 14.2526C17.5994 14.4159 17.1768 14.5 16.75 14.5H3.25C2.38805 14.5 1.5614 14.1576 0.951903 13.5481C0.34241 12.9386 0 12.112 0 11.25V3.75ZM18.5 5V3.75C18.5 3.28587 18.3156 2.84075 17.9874 2.51256C17.6592 2.18437 17.2141 2 16.75 2H3.25C2.78587 2 2.34075 2.18437 2.01256 2.51256C1.68437 2.84075 1.5 3.28587 1.5 3.75V5H18.5ZM1.5 6.5V11.25C1.5 12.216 2.284 13 3.25 13H16.75C17.2141 13 17.6592 12.8156 17.9874 12.4874C18.3156 12.1592 18.5 11.7141 18.5 11.25V6.5H1.5Z" fill="white"/>
</svg>
