<svg width="35" height="35" viewBox="0 0 35 35" fill="none" xmlns="http://www.w3.org/2000/svg">
<path d="M13.8419 29.8959C15.1727 29.8959 16.2516 28.817 16.2516 27.4861C16.2516 26.1552 15.1727 25.0764 13.8419 25.0764C12.511 25.0764 11.4321 26.1552 11.4321 27.4861C11.4321 28.817 12.511 29.8959 13.8419 29.8959Z" stroke="white" stroke-width="2" stroke-linecap="round" stroke-linejoin="round"/>
<path d="M24.3407 29.8959C25.6715 29.8959 26.7504 28.817 26.7504 27.4861C26.7504 26.1552 25.6715 25.0764 24.3407 25.0764C23.0098 25.0764 21.9309 26.1552 21.9309 27.4861C21.9309 28.817 23.0098 29.8959 24.3407 29.8959Z" stroke="white" stroke-width="2" stroke-linecap="round" stroke-linejoin="round"/>
<path d="M8.25588 8.3696L11.1034 17.3853C11.5411 18.7708 11.7593 19.4635 12.18 19.9764C12.5484 20.4297 13.0286 20.7796 13.5712 20.9964C14.1875 21.2414 14.9128 21.2414 16.3663 21.2414H21.8275C23.281 21.2414 24.0064 21.2414 24.6212 20.9964C25.1652 20.7796 25.644 20.4297 26.0138 19.9764C26.4331 19.4635 26.6513 18.7708 27.0905 17.3853L27.6699 15.5493L28.0099 14.4641L28.4788 12.9766C28.6461 12.4461 28.6861 11.8836 28.5956 11.3347C28.505 10.7858 28.2864 10.266 27.9575 9.81731C27.6286 9.36865 27.1986 9.00378 26.7024 8.75227C26.2062 8.50075 25.6578 8.36965 25.1015 8.3696H8.25588ZM8.25588 8.3696L8.2403 8.31719C8.18047 8.11681 8.11433 7.91838 8.04196 7.72219C7.75516 6.9962 7.2688 6.36618 6.63907 5.90492C6.00935 5.44366 5.26198 5.16999 4.4833 5.11552C4.33738 5.10419 4.1773 5.10419 3.85571 5.10419" stroke="white" stroke-width="2" stroke-linecap="round" stroke-linejoin="round"/>
</svg>
