<svg width="20" height="20" viewBox="0 0 20 20" fill="none" xmlns="http://www.w3.org/2000/svg">
<path d="M18.4098 7.83609C18.0859 7.4975 17.7507 7.14859 17.6244 6.8418C17.5075 6.56078 17.5006 6.095 17.4937 5.64383C17.4809 4.80508 17.4671 3.85461 16.8062 3.19375C16.1454 2.53289 15.1949 2.51914 14.3562 2.50625C13.905 2.49937 13.4392 2.4925 13.1582 2.37562C12.8523 2.2493 12.5025 1.91414 12.1639 1.59016C11.5709 1.02039 10.8972 0.375 10 0.375C9.10281 0.375 8.42992 1.02039 7.83609 1.59016C7.4975 1.91414 7.14859 2.2493 6.8418 2.37562C6.5625 2.4925 6.095 2.49937 5.64383 2.50625C4.80508 2.51914 3.85461 2.53289 3.19375 3.19375C2.53289 3.85461 2.52344 4.80508 2.50625 5.64383C2.49937 6.095 2.4925 6.56078 2.37562 6.8418C2.2493 7.14773 1.91414 7.4975 1.59016 7.83609C1.02039 8.42906 0.375 9.10281 0.375 10C0.375 10.8972 1.02039 11.5701 1.59016 12.1639C1.91414 12.5025 2.2493 12.8514 2.37562 13.1582C2.4925 13.4392 2.49937 13.905 2.50625 14.3562C2.51914 15.1949 2.53289 16.1454 3.19375 16.8062C3.85461 17.4671 4.80508 17.4809 5.64383 17.4937C6.095 17.5006 6.56078 17.5075 6.8418 17.6244C7.14773 17.7507 7.4975 18.0859 7.83609 18.4098C8.42906 18.9796 9.10281 19.625 10 19.625C10.8972 19.625 11.5701 18.9796 12.1639 18.4098C12.5025 18.0859 12.8514 17.7507 13.1582 17.6244C13.4392 17.5075 13.905 17.5006 14.3562 17.4937C15.1949 17.4809 16.1454 17.4671 16.8062 16.8062C17.4671 16.1454 17.4809 15.1949 17.4937 14.3562C17.5006 13.905 17.5075 13.4392 17.6244 13.1582C17.7507 12.8523 18.0859 12.5025 18.4098 12.1639C18.9796 11.5709 19.625 10.8972 19.625 10C19.625 9.10281 18.9796 8.42992 18.4098 7.83609ZM17.4173 11.2126C17.0056 11.6423 16.5794 12.0866 16.3534 12.6323C16.1368 13.1565 16.1273 13.7555 16.1187 14.3355C16.1102 14.9371 16.1007 15.567 15.8334 15.8334C15.5662 16.0998 14.9405 16.1102 14.3355 16.1187C13.7555 16.1273 13.1565 16.1368 12.6323 16.3534C12.0866 16.5794 11.6423 17.0056 11.2126 17.4173C10.7829 17.8289 10.3438 18.25 10 18.25C9.65625 18.25 9.21367 17.8272 8.78742 17.4173C8.36117 17.0073 7.91344 16.5794 7.36773 16.3534C6.84352 16.1368 6.24453 16.1273 5.66445 16.1187C5.06289 16.1102 4.43297 16.1007 4.16656 15.8334C3.90016 15.5662 3.88984 14.9405 3.88125 14.3355C3.87266 13.7555 3.8632 13.1565 3.64664 12.6323C3.42062 12.0866 2.99437 11.6423 2.58273 11.2126C2.17109 10.7829 1.75 10.3438 1.75 10C1.75 9.65625 2.17281 9.21367 2.58273 8.78742C2.99266 8.36117 3.42062 7.91344 3.64664 7.36773C3.8632 6.84352 3.87266 6.24453 3.88125 5.66445C3.88984 5.06289 3.8993 4.43297 4.16656 4.16656C4.43383 3.90016 5.05945 3.88984 5.66445 3.88125C6.24453 3.87266 6.84352 3.8632 7.36773 3.64664C7.91344 3.42062 8.35773 2.99437 8.78742 2.58273C9.21711 2.17109 9.65625 1.75 10 1.75C10.3438 1.75 10.7863 2.17281 11.2126 2.58273C11.6388 2.99266 12.0866 3.42062 12.6323 3.64664C13.1565 3.8632 13.7555 3.87266 14.3355 3.88125C14.9371 3.88984 15.567 3.8993 15.8334 4.16656C16.0998 4.43383 16.1102 5.05945 16.1187 5.66445C16.1273 6.24453 16.1368 6.84352 16.3534 7.36773C16.5794 7.91344 17.0056 8.35773 17.4173 8.78742C17.8289 9.21711 18.25 9.65625 18.25 10C18.25 10.3438 17.8272 10.7863 17.4173 11.2126ZM13.9239 7.45109C13.9878 7.51494 14.0385 7.59077 14.0731 7.67423C14.1077 7.75769 14.1255 7.84715 14.1255 7.9375C14.1255 8.02785 14.1077 8.11731 14.0731 8.20077C14.0385 8.28423 13.9878 8.36006 13.9239 8.42391L9.11141 13.2364C9.04756 13.3003 8.97173 13.351 8.88827 13.3856C8.80481 13.4202 8.71535 13.438 8.625 13.438C8.53465 13.438 8.44519 13.4202 8.36173 13.3856C8.27827 13.351 8.20244 13.3003 8.13859 13.2364L6.07609 11.1739C5.94709 11.0449 5.87462 10.8699 5.87462 10.6875C5.87462 10.5051 5.94709 10.3301 6.07609 10.2011C6.2051 10.0721 6.38006 9.99962 6.5625 9.99962C6.74494 9.99962 6.9199 10.0721 7.04891 10.2011L8.625 11.778L12.9511 7.45109C13.0149 7.38717 13.0908 7.33646 13.1742 7.30187C13.2577 7.26727 13.3472 7.24946 13.4375 7.24946C13.5278 7.24946 13.6173 7.26727 13.7008 7.30187C13.7842 7.33646 13.8601 7.38717 13.9239 7.45109Z" fill="white"/>
</svg>
