<svg width="97" height="97" viewBox="0 0 97 97" fill="none" xmlns="http://www.w3.org/2000/svg">
<circle cx="48.5" cy="48.5" r="48.5" fill="#FF6600"/>
<path d="M97 48.5C97 36.7101 92.7054 25.3239 84.9194 16.4707C77.1334 7.61745 66.3891 1.9035 54.6957 0.397373C43.0024 -1.10876 31.1609 1.69608 21.3856 8.28734C11.6102 14.8786 4.57056 24.8049 1.58298 36.21C-1.4046 47.6151 -0.135472 59.718 5.15302 70.2552C10.4415 80.7925 19.3872 89.0425 30.3172 93.4626C41.2472 97.8827 53.413 98.1701 64.5395 94.271C75.666 90.3719 84.9913 82.5535 90.7714 72.2777L48.5 48.5H97Z" fill="#621FE0"/>
<path d="M97 48.5C97 37.8235 93.4771 27.4453 86.9776 18.9751C80.4782 10.5048 71.3654 4.41588 61.0527 1.6526C50.74 -1.11069 39.8037 -0.393881 29.9399 3.69184C20.076 7.77757 11.836 15.0039 6.49777 24.25C1.15951 33.4961 -0.97864 44.2453 0.414924 54.8305C1.80849 65.4157 6.65589 75.2452 14.2053 82.7947C21.7548 90.3441 31.5843 95.1915 42.1695 96.5851C52.7546 97.9786 63.5039 95.8405 72.75 90.5022L48.5 48.5H97Z" fill="white"/>
<path d="M97 48.5C97 38.9076 94.1555 29.5306 88.8263 21.5548C83.497 13.5791 75.9224 7.36269 67.0602 3.69184C58.1979 0.0209924 48.4462 -0.939469 39.0381 0.931914C29.63 2.8033 20.9882 7.42247 14.2053 14.2053C7.42247 20.9882 2.8033 29.63 0.931914 39.0381C-0.939469 48.4462 0.0209925 58.1979 3.69184 67.0602C7.36269 75.9224 13.5791 83.497 21.5548 88.8263C29.5306 94.1555 38.9076 97 48.5 97V48.5H97Z" fill="#621FE0"/>
<path d="M97 48.5C97 39.9866 94.7591 31.6233 90.5025 24.2505C86.2459 16.8776 80.1236 10.7551 72.7509 6.49829C65.3782 2.24145 57.0149 0.000273668 48.5016 2.50541e-08C39.9882 -0.000273618 31.6248 2.24037 24.2518 6.49673C16.8788 10.7531 10.7561 16.8752 6.49907 24.2477C2.242 31.6203 0.000547386 39.9835 1.00216e-07 48.4969C-0.000547186 57.0102 2.23983 65.3737 6.49595 72.7468C10.7521 80.1199 16.874 86.2428 24.2464 90.5002L48.5 48.5H97Z" fill="#FF6600"/>
<path d="M97 48.5C97 41.1834 95.3446 33.9617 92.1579 27.3756C88.9711 20.7895 84.3355 15.0097 78.5983 10.4692C72.8611 5.92864 66.1709 2.74498 59.0288 1.15664C51.8867 -0.431711 44.4778 -0.38358 37.357 1.29742C30.2361 2.97843 23.5879 6.24874 17.9101 10.8634C12.2324 15.4781 7.67231 21.3176 4.57137 27.9446C1.47044 34.5715 -0.0909654 41.8142 0.00409356 49.1301C0.0991525 56.4461 1.84821 63.6457 5.12028 70.1899L48.5 48.5H97Z" fill="white"/>
<path d="M97 48.5C97 35.637 91.8902 23.3008 82.7947 14.2053C73.6992 5.10981 61.363 9.7113e-07 48.5 0C35.637 -9.71129e-07 23.3008 5.1098 14.2053 14.2053C5.10981 23.3008 1.94226e-06 35.637 0 48.5L48.5 48.5H97Z" fill="#621FE0"/>
<path d="M97 48.5C97 42.1309 95.7455 35.8241 93.3082 29.9399C90.8708 24.0556 87.2983 18.709 82.7947 14.2053C78.291 9.70168 72.9444 6.1292 67.0601 3.69184C61.1759 1.25449 54.8691 -2.78403e-07 48.5 0C42.1309 2.78403e-07 35.8241 1.25449 29.9399 3.69184C24.0556 6.1292 18.709 9.70168 14.2053 14.2053C9.70168 18.709 6.12919 24.0556 3.69184 29.9399C1.25449 35.8242 -5.56805e-07 42.1309 0 48.5L48.5 48.5H97Z" fill="#621FE0"/>
<path d="M97 48.5C97 42.1309 95.7455 35.8241 93.3082 29.9399C90.8708 24.0556 87.2983 18.709 82.7947 14.2053C78.291 9.70168 72.9444 6.1292 67.0601 3.69184C61.1759 1.25449 54.8691 -2.78403e-07 48.5 0C42.1309 2.78403e-07 35.8241 1.25449 29.9399 3.69184C24.0556 6.1292 18.709 9.70168 14.2053 14.2053C9.70168 18.709 6.12919 24.0556 3.69184 29.9399C1.25449 35.8242 -5.56805e-07 42.1309 0 48.5L48.5 48.5H97Z" fill="#621FE0"/>
<path d="M97 48.5C97 37.7707 93.4422 27.3442 86.8835 18.8528C80.3249 10.3615 71.1357 4.28467 60.7545 1.57369C50.3733 -1.13728 39.3861 -0.329357 29.5131 3.87098C19.6402 8.07132 11.4387 15.4269 6.19265 24.7863L48.5 48.5H97Z" fill="white"/>
<path d="M97 48.5C97 39.8973 94.7118 31.4495 90.3702 24.0227C86.0286 16.596 79.7897 10.4578 72.2934 6.23741C64.797 2.01708 56.3131 -0.133441 47.7116 0.00640911C39.11 0.146259 30.7005 2.57144 23.3453 7.03325L48.5 48.5H97Z" fill="#FF6600"/>
<path d="M97 48.5C97 42.1309 95.7455 35.8241 93.3082 29.9399C90.8708 24.0556 87.2983 18.709 82.7947 14.2053C78.291 9.70168 72.9444 6.1292 67.0601 3.69184C61.1759 1.25449 54.8691 -2.78403e-07 48.5 0L48.5 48.5H97Z" fill="white"/>
<path d="M97 48.5C97 39.8807 94.703 31.4172 90.3455 23.9805C85.988 16.5439 79.7274 10.4028 72.2081 6.18953L48.5 48.5H97Z" fill="#621FE0"/>
<path d="M97 48.5C97 39.9229 94.7254 31.4993 90.4083 24.0879L48.5 48.5H97Z" fill="white"/>
<g filter="url(#filter0_d_146_6350)">
<path d="M12.3407 13.2925C12.6728 12.9604 12.6728 12.4219 12.3407 12.0898C12.0086 11.7577 11.4701 11.7577 11.138 12.0898C10.8059 12.4219 10.8059 12.9604 11.138 13.2925C11.4701 13.6246 12.0086 13.6246 12.3407 13.2925Z" fill="#FF6600"/>
<path d="M8.73259 9.6844C7.07474 11.3423 7.01592 13.9812 8.60104 15.5664C9.35593 16.3213 10.7039 16.9811 12.6075 17.5275C14.1361 17.9661 15.656 18.2251 16.4265 18.3397C16.5575 18.3599 16.6915 18.349 16.8175 18.3078C16.9435 18.2665 17.058 18.1962 17.1518 18.1024C17.2455 18.0087 17.3158 17.8942 17.3571 17.7682C17.3983 17.6422 17.4092 17.5082 17.389 17.3772C17.2738 16.6073 17.0155 15.0868 16.5768 13.5582C16.0296 11.6561 15.3698 10.3081 14.6146 9.55286C13.0294 7.96773 10.3904 8.02655 8.73259 9.6844ZM12.942 13.8939C12.7042 14.1317 12.4011 14.2937 12.0712 14.3594C11.7412 14.425 11.3992 14.3913 11.0884 14.2626C10.7777 14.1338 10.512 13.9158 10.3251 13.6361C10.1382 13.3564 10.0385 13.0276 10.0385 12.6912C10.0385 12.3548 10.1382 12.0259 10.3251 11.7462C10.512 11.4665 10.7777 11.2485 11.0884 11.1198C11.3992 10.991 11.7412 10.9573 12.0712 11.023C12.4011 11.0886 12.7042 11.2506 12.942 11.4885C13.2606 11.8077 13.4395 12.2402 13.4395 12.6912C13.4395 13.1421 13.2606 13.5746 12.942 13.8939Z" fill="#FF6600"/>
</g>
<g filter="url(#filter1_d_146_6350)">
<circle cx="49" cy="49" r="27" fill="white"/>
</g>
<path d="M33.9902 42.1992C33.9538 41.8581 33.8001 41.5924 33.5293 41.4023C33.2611 41.2122 32.9121 41.1172 32.4824 41.1172C32.1803 41.1172 31.9212 41.1628 31.7051 41.2539C31.4889 41.3451 31.3236 41.4687 31.209 41.625C31.0944 41.7812 31.0358 41.9596 31.0332 42.1602C31.0332 42.3268 31.071 42.4714 31.1465 42.5937C31.2246 42.7161 31.3301 42.8203 31.4629 42.9062C31.5957 42.9896 31.7428 43.0599 31.9043 43.1172C32.0658 43.1745 32.2285 43.2227 32.3926 43.2617L33.1426 43.4492C33.4447 43.5195 33.735 43.6146 34.0137 43.7344C34.2949 43.8542 34.5462 44.0052 34.7676 44.1875C34.9915 44.3698 35.1686 44.5898 35.2988 44.8477C35.429 45.1055 35.4941 45.4076 35.4941 45.7539C35.4941 46.2227 35.3743 46.6354 35.1348 46.9922C34.8952 47.3464 34.5488 47.6237 34.0957 47.8242C33.6452 48.0221 33.0996 48.1211 32.459 48.1211C31.8366 48.1211 31.2962 48.0247 30.8379 47.832C30.3822 47.6393 30.0254 47.3581 29.7676 46.9883C29.5124 46.6185 29.3743 46.168 29.3535 45.6367H30.7793C30.8001 45.9154 30.8861 46.1471 31.0371 46.332C31.1882 46.5169 31.3848 46.6549 31.627 46.7461C31.8717 46.8372 32.1452 46.8828 32.4473 46.8828C32.7624 46.8828 33.0384 46.8359 33.2754 46.7422C33.515 46.6458 33.7025 46.513 33.8379 46.3437C33.9733 46.1719 34.0423 45.9714 34.0449 45.7422C34.0423 45.5339 33.9811 45.362 33.8613 45.2266C33.7415 45.0885 33.5736 44.974 33.3574 44.8828C33.1439 44.7891 32.8939 44.7057 32.6074 44.6328L31.6973 44.3984C31.0384 44.2292 30.5176 43.9727 30.1348 43.6289C29.7546 43.2826 29.5645 42.8229 29.5645 42.25C29.5645 41.7786 29.6921 41.3659 29.9473 41.0117C30.2051 40.6576 30.5553 40.3828 30.998 40.1875C31.4408 39.9896 31.9421 39.8906 32.502 39.8906C33.0697 39.8906 33.5671 39.9896 33.9941 40.1875C34.4238 40.3828 34.7611 40.6549 35.0059 41.0039C35.2507 41.3503 35.377 41.7487 35.3848 42.1992H33.9902ZM36.7236 50.25V42H38.1143V42.9922H38.1963C38.2692 42.8464 38.3721 42.6914 38.5049 42.5273C38.6377 42.3607 38.8174 42.2187 39.0439 42.1016C39.2705 41.9818 39.5596 41.9219 39.9111 41.9219C40.3747 41.9219 40.7926 42.0404 41.165 42.2773C41.54 42.5117 41.8369 42.8594 42.0557 43.3203C42.277 43.7786 42.3877 44.3411 42.3877 45.0078C42.3877 45.6667 42.2796 46.2266 42.0635 46.6875C41.8473 47.1484 41.5531 47.5 41.1807 47.7422C40.8083 47.9844 40.3864 48.1055 39.915 48.1055C39.5713 48.1055 39.2861 48.0482 39.0596 47.9336C38.833 47.819 38.6507 47.681 38.5127 47.5195C38.3773 47.3555 38.2718 47.2005 38.1963 47.0547H38.1377V50.25H36.7236ZM38.1104 45C38.1104 45.388 38.165 45.7279 38.2744 46.0195C38.3864 46.3112 38.5465 46.5391 38.7549 46.7031C38.9658 46.8646 39.221 46.9453 39.5205 46.9453C39.833 46.9453 40.0947 46.862 40.3057 46.6953C40.5166 46.526 40.6755 46.2956 40.7822 46.0039C40.8916 45.7096 40.9463 45.375 40.9463 45C40.9463 44.6276 40.8929 44.2969 40.7861 44.0078C40.6794 43.7187 40.5205 43.4922 40.3096 43.3281C40.0986 43.1641 39.8356 43.082 39.5205 43.082C39.2184 43.082 38.9619 43.1615 38.751 43.3203C38.54 43.4792 38.3799 43.7018 38.2705 43.9883C38.1637 44.2747 38.1104 44.612 38.1104 45ZM43.5986 48V42H45.0127V48H43.5986ZM44.3096 41.1484C44.0856 41.1484 43.8929 41.0742 43.7314 40.9258C43.57 40.7747 43.4893 40.5937 43.4893 40.3828C43.4893 40.1693 43.57 39.9883 43.7314 39.8398C43.8929 39.6888 44.0856 39.6133 44.3096 39.6133C44.5361 39.6133 44.7288 39.6888 44.8877 39.8398C45.0492 39.9883 45.1299 40.1693 45.1299 40.3828C45.1299 40.5937 45.0492 40.7747 44.8877 40.9258C44.7288 41.0742 44.5361 41.1484 44.3096 41.1484ZM47.8809 44.4844V48H46.4668V42H47.8184V43.0195H47.8887C48.0267 42.6836 48.2467 42.4167 48.5488 42.2187C48.8535 42.0208 49.2298 41.9219 49.6777 41.9219C50.0918 41.9219 50.4525 42.0104 50.7598 42.1875C51.0697 42.3646 51.3092 42.6211 51.4785 42.957C51.6504 43.293 51.735 43.7005 51.7324 44.1797V48H50.3184V44.3984C50.3184 43.9974 50.2142 43.6836 50.0059 43.457C49.8001 43.2305 49.515 43.1172 49.1504 43.1172C48.903 43.1172 48.6829 43.1719 48.4902 43.2812C48.3001 43.388 48.1504 43.543 48.041 43.7461C47.9342 43.9492 47.8809 44.1953 47.8809 44.4844ZM58.9375 42V43.0937H55.3906V42H58.9375ZM56.2773 48V41.4336C56.2773 41.0299 56.3607 40.694 56.5273 40.4258C56.6966 40.1576 56.9232 39.957 57.207 39.8242C57.4909 39.6914 57.806 39.625 58.1523 39.625C58.3971 39.625 58.6146 39.6445 58.8047 39.6836C58.9948 39.7227 59.1354 39.7578 59.2266 39.7891L58.9453 40.8828C58.8854 40.8646 58.8099 40.8464 58.7188 40.8281C58.6276 40.8073 58.526 40.7969 58.4141 40.7969C58.151 40.7969 57.9648 40.8607 57.8555 40.9883C57.7487 41.1133 57.6953 41.293 57.6953 41.5273V48H56.2773ZM62.4365 48.1172C61.8506 48.1172 61.3428 47.9883 60.9131 47.7305C60.4834 47.4727 60.1501 47.112 59.9131 46.6484C59.6787 46.1849 59.5615 45.6432 59.5615 45.0234C59.5615 44.4036 59.6787 43.8607 59.9131 43.3945C60.1501 42.9284 60.4834 42.5664 60.9131 42.3086C61.3428 42.0508 61.8506 41.9219 62.4365 41.9219C63.0225 41.9219 63.5303 42.0508 63.96 42.3086C64.3896 42.5664 64.7217 42.9284 64.9561 43.3945C65.193 43.8607 65.3115 44.4036 65.3115 45.0234C65.3115 45.6432 65.193 46.1849 64.9561 46.6484C64.7217 47.112 64.3896 47.4727 63.96 47.7305C63.5303 47.9883 63.0225 48.1172 62.4365 48.1172ZM62.4443 46.9844C62.762 46.9844 63.0277 46.8971 63.2412 46.7227C63.4548 46.5456 63.6136 46.3086 63.7178 46.0117C63.8245 45.7148 63.8779 45.3841 63.8779 45.0195C63.8779 44.6523 63.8245 44.3203 63.7178 44.0234C63.6136 43.724 63.4548 43.4857 63.2412 43.3086C63.0277 43.1315 62.762 43.043 62.4443 43.043C62.1188 43.043 61.848 43.1315 61.6318 43.3086C61.4183 43.4857 61.2581 43.724 61.1514 44.0234C61.0472 44.3203 60.9951 44.6523 60.9951 45.0195C60.9951 45.3841 61.0472 45.7148 61.1514 46.0117C61.2581 46.3086 61.4183 46.5456 61.6318 46.7227C61.848 46.8971 62.1188 46.9844 62.4443 46.9844ZM66.5117 48V42H67.8828V43H67.9453C68.0547 42.6536 68.2422 42.3867 68.5078 42.1992C68.776 42.0091 69.082 41.9141 69.4258 41.9141C69.5039 41.9141 69.5911 41.918 69.6875 41.9258C69.7865 41.931 69.8685 41.9401 69.9336 41.9531V43.2539C69.8737 43.2331 69.7786 43.2148 69.6484 43.1992C69.5208 43.181 69.3971 43.1719 69.2773 43.1719C69.0195 43.1719 68.7878 43.2279 68.582 43.3398C68.3789 43.4492 68.2188 43.6016 68.1016 43.7969C67.9844 43.9922 67.9258 44.2174 67.9258 44.4727V48H66.5117ZM27.2095 58V50H30.2095C30.8241 50 31.3397 50.1068 31.7563 50.3203C32.1756 50.5339 32.492 50.8333 32.7056 51.2187C32.9217 51.6016 33.0298 52.0482 33.0298 52.5586C33.0298 53.0716 32.9204 53.5169 32.7017 53.8945C32.4855 54.2695 32.1665 54.5599 31.7446 54.7656C31.3228 54.9687 30.8045 55.0703 30.1899 55.0703H28.0532V53.8672H29.9946C30.354 53.8672 30.6483 53.8177 30.8774 53.7187C31.1066 53.6172 31.2759 53.4701 31.3853 53.2773C31.4972 53.082 31.5532 52.8424 31.5532 52.5586C31.5532 52.2747 31.4972 52.0326 31.3853 51.832C31.2733 51.6289 31.1027 51.4753 30.8735 51.3711C30.6444 51.2643 30.3488 51.2109 29.9868 51.2109H28.6587V58H27.2095ZM31.3423 54.375L33.3228 58H31.7056L29.7603 54.375H31.3423ZM36.8716 58.1172C36.27 58.1172 35.7505 57.9922 35.313 57.7422C34.8781 57.4896 34.5435 57.1328 34.3091 56.6719C34.0747 56.2083 33.9575 55.6628 33.9575 55.0352C33.9575 54.418 34.0747 53.8763 34.3091 53.4102C34.5461 52.9414 34.8768 52.5768 35.3013 52.3164C35.7257 52.0534 36.2244 51.9219 36.7974 51.9219C37.1672 51.9219 37.5161 51.9818 37.8442 52.1016C38.175 52.2187 38.4666 52.401 38.7192 52.6484C38.9744 52.8958 39.175 53.2109 39.3208 53.5937C39.4666 53.974 39.5396 54.4271 39.5396 54.9531V55.3867H34.6216V54.4336H38.1841C38.1815 54.1628 38.1229 53.9219 38.0083 53.7109C37.8937 53.4974 37.7336 53.3294 37.5278 53.207C37.3247 53.0846 37.0877 53.0234 36.8169 53.0234C36.5278 53.0234 36.2739 53.0937 36.0552 53.2344C35.8364 53.3724 35.6659 53.5547 35.5435 53.7812C35.4237 54.0052 35.3625 54.2513 35.3599 54.5195V55.3516C35.3599 55.7005 35.4237 56 35.5513 56.25C35.6789 56.4974 35.8573 56.6875 36.0864 56.8203C36.3156 56.9505 36.5838 57.0156 36.8911 57.0156C37.0968 57.0156 37.283 56.987 37.4497 56.9297C37.6164 56.8698 37.7609 56.7826 37.8833 56.668C38.0057 56.5534 38.0981 56.4115 38.1606 56.2422L39.481 56.3906C39.3976 56.7396 39.2388 57.0443 39.0044 57.3047C38.7726 57.5625 38.4757 57.763 38.1138 57.9062C37.7518 58.0469 37.3377 58.1172 36.8716 58.1172ZM41.9419 58L40.2466 52H41.688L42.7427 56.2187H42.7974L43.8755 52H45.3013L46.3794 56.1953H46.438L47.4771 52H48.9224L47.2231 58H45.7505L44.6255 53.9453H44.5435L43.4185 58H41.9419ZM51.6362 58.1211C51.256 58.1211 50.9136 58.0534 50.6089 57.918C50.3068 57.7799 50.0672 57.5768 49.8901 57.3086C49.7157 57.0404 49.6284 56.7096 49.6284 56.3164C49.6284 55.9779 49.6909 55.6979 49.8159 55.4766C49.9409 55.2552 50.1115 55.0781 50.3276 54.9453C50.5438 54.8125 50.7873 54.7122 51.0581 54.6445C51.3315 54.5742 51.6141 54.5234 51.9058 54.4922C52.2573 54.4557 52.5425 54.4232 52.7612 54.3945C52.98 54.3633 53.1388 54.3164 53.2378 54.2539C53.3394 54.1888 53.3901 54.0885 53.3901 53.9531V53.9297C53.3901 53.6354 53.3029 53.4076 53.1284 53.2461C52.9539 53.0846 52.7026 53.0039 52.3745 53.0039C52.0282 53.0039 51.7534 53.0794 51.5503 53.2305C51.3498 53.3815 51.2144 53.5599 51.144 53.7656L49.8237 53.5781C49.9279 53.2135 50.0998 52.9089 50.3394 52.6641C50.5789 52.4167 50.8719 52.2318 51.2183 52.1094C51.5646 51.9844 51.9474 51.9219 52.3667 51.9219C52.6558 51.9219 52.9435 51.9557 53.23 52.0234C53.5164 52.0911 53.7782 52.2031 54.0151 52.3594C54.2521 52.513 54.4422 52.7227 54.5854 52.9883C54.7313 53.2539 54.8042 53.5859 54.8042 53.9844V58H53.4448V57.1758H53.3979C53.312 57.3424 53.1909 57.4987 53.0347 57.6445C52.881 57.7878 52.687 57.9036 52.4526 57.9922C52.2209 58.0781 51.9487 58.1211 51.6362 58.1211ZM52.0034 57.082C52.2873 57.082 52.5334 57.026 52.7417 56.9141C52.95 56.7995 53.1102 56.6484 53.2222 56.4609C53.3368 56.2734 53.394 56.069 53.394 55.8477V55.1406C53.3498 55.1771 53.2743 55.2109 53.1675 55.2422C53.0633 55.2734 52.9461 55.3008 52.8159 55.3242C52.6857 55.3477 52.5568 55.3685 52.4292 55.3867C52.3016 55.4049 52.1909 55.4206 52.0972 55.4336C51.8862 55.4622 51.6974 55.5091 51.5308 55.5742C51.3641 55.6393 51.2326 55.7305 51.1362 55.8477C51.0399 55.9622 50.9917 56.1107 50.9917 56.293C50.9917 56.5534 51.0868 56.75 51.2769 56.8828C51.467 57.0156 51.7091 57.082 52.0034 57.082ZM56.2261 58V52H57.5972V53H57.6597C57.769 52.6536 57.9565 52.3867 58.2222 52.1992C58.4904 52.0091 58.7964 51.9141 59.1401 51.9141C59.2183 51.9141 59.3055 51.918 59.4019 51.9258C59.5008 51.931 59.5828 51.9401 59.6479 51.9531V53.2539C59.5881 53.2331 59.493 53.2148 59.3628 53.1992C59.2352 53.181 59.1115 53.1719 58.9917 53.1719C58.7339 53.1719 58.5021 53.2279 58.2964 53.3398C58.0933 53.4492 57.9331 53.6016 57.8159 53.7969C57.6987 53.9922 57.6401 54.2174 57.6401 54.4727V58H56.2261ZM62.5669 58.1055C62.0955 58.1055 61.6737 57.9844 61.3013 57.7422C60.9289 57.5 60.6346 57.1484 60.4185 56.6875C60.2023 56.2266 60.0942 55.6667 60.0942 55.0078C60.0942 54.3411 60.2036 53.7786 60.4224 53.3203C60.6437 52.8594 60.9419 52.5117 61.3169 52.2773C61.6919 52.0404 62.1099 51.9219 62.5708 51.9219C62.9224 51.9219 63.2114 51.9818 63.438 52.1016C63.6646 52.2187 63.8442 52.3607 63.9771 52.5273C64.1099 52.6914 64.2127 52.8464 64.2856 52.9922H64.3442V50H65.7622V58H64.3716V57.0547H64.2856C64.2127 57.2005 64.1073 57.3555 63.9692 57.5195C63.8312 57.681 63.6489 57.819 63.4224 57.9336C63.1958 58.0482 62.9106 58.1055 62.5669 58.1055ZM62.9614 56.9453C63.2609 56.9453 63.5161 56.8646 63.7271 56.7031C63.938 56.5391 64.0981 56.3112 64.2075 56.0195C64.3169 55.7279 64.3716 55.388 64.3716 55C64.3716 54.612 64.3169 54.2747 64.2075 53.9883C64.1007 53.7018 63.9419 53.4792 63.731 53.3203C63.5226 53.1615 63.2661 53.082 62.9614 53.082C62.6463 53.082 62.3833 53.1641 62.1724 53.3281C61.9614 53.4922 61.8026 53.7187 61.6958 54.0078C61.589 54.2969 61.5356 54.6276 61.5356 55C61.5356 55.375 61.589 55.7096 61.6958 56.0039C61.8052 56.2956 61.9653 56.526 62.1763 56.6953C62.3898 56.862 62.6515 56.9453 62.9614 56.9453ZM72.0112 53.5859L70.7222 53.7266C70.6857 53.5964 70.6219 53.474 70.5308 53.3594C70.4422 53.2448 70.3224 53.1523 70.1714 53.082C70.0203 53.0117 69.8354 52.9766 69.6167 52.9766C69.3224 52.9766 69.075 53.0404 68.8745 53.168C68.6766 53.2956 68.5789 53.4609 68.5815 53.6641C68.5789 53.8385 68.6427 53.9805 68.7729 54.0898C68.9058 54.1992 69.1245 54.2891 69.4292 54.3594L70.4526 54.5781C71.0203 54.7005 71.4422 54.8945 71.7183 55.1602C71.9969 55.4258 72.1375 55.7734 72.1401 56.2031C72.1375 56.5807 72.0269 56.9141 71.8081 57.2031C71.592 57.4896 71.2912 57.7135 70.9058 57.875C70.5203 58.0365 70.0776 58.1172 69.5776 58.1172C68.8433 58.1172 68.2521 57.9635 67.8042 57.6562C67.3563 57.3464 67.0894 56.9154 67.0034 56.3633L68.3823 56.2305C68.4448 56.5013 68.5776 56.7057 68.7808 56.8437C68.9839 56.9818 69.2482 57.0508 69.5737 57.0508C69.9097 57.0508 70.1792 56.9818 70.3823 56.8437C70.5881 56.7057 70.6909 56.5352 70.6909 56.332C70.6909 56.1602 70.6245 56.0182 70.4917 55.9062C70.3615 55.7943 70.1584 55.7083 69.8823 55.6484L68.8589 55.4336C68.2834 55.3138 67.8576 55.112 67.5815 54.8281C67.3055 54.5417 67.1688 54.1797 67.1714 53.7422C67.1688 53.3724 67.269 53.0521 67.4722 52.7812C67.6779 52.5078 67.9631 52.2969 68.3276 52.1484C68.6948 51.9974 69.118 51.9219 69.5972 51.9219C70.3003 51.9219 70.8537 52.0716 71.2573 52.3711C71.6636 52.6706 71.9149 53.0755 72.0112 53.5859Z" fill="#FD4600"/>
<defs>
<filter id="filter0_d_146_6350" x="3.44971" y="8.40149" width="17.9492" height="17.9481" filterUnits="userSpaceOnUse" color-interpolation-filters="sRGB">
<feFlood flood-opacity="0" result="BackgroundImageFix"/>
<feColorMatrix in="SourceAlpha" type="matrix" values="0 0 0 0 0 0 0 0 0 0 0 0 0 0 0 0 0 0 127 0" result="hardAlpha"/>
<feOffset dy="4"/>
<feGaussianBlur stdDeviation="2"/>
<feComposite in2="hardAlpha" operator="out"/>
<feColorMatrix type="matrix" values="0 0 0 0 0 0 0 0 0 0 0 0 0 0 0 0 0 0 0.19 0"/>
<feBlend mode="normal" in2="BackgroundImageFix" result="effect1_dropShadow_146_6350"/>
<feBlend mode="normal" in="SourceGraphic" in2="effect1_dropShadow_146_6350" result="shape"/>
</filter>
<filter id="filter1_d_146_6350" x="22" y="14" width="62" height="62" filterUnits="userSpaceOnUse" color-interpolation-filters="sRGB">
<feFlood flood-opacity="0" result="BackgroundImageFix"/>
<feColorMatrix in="SourceAlpha" type="matrix" values="0 0 0 0 0 0 0 0 0 0 0 0 0 0 0 0 0 0 127 0" result="hardAlpha"/>
<feOffset dx="4" dy="-4"/>
<feGaussianBlur stdDeviation="2"/>
<feComposite in2="hardAlpha" operator="out"/>
<feColorMatrix type="matrix" values="0 0 0 0 0 0 0 0 0 0 0 0 0 0 0 0 0 0 0.25 0"/>
<feBlend mode="normal" in2="BackgroundImageFix" result="effect1_dropShadow_146_6350"/>
<feBlend mode="normal" in="SourceGraphic" in2="effect1_dropShadow_146_6350" result="shape"/>
</filter>
</defs>
</svg>
